<?xml version="1.0" encoding="UTF-8" standalone="no"?>
<svg
   xmlns:dc="http://purl.org/dc/elements/1.1/"
   xmlns:cc="http://creativecommons.org/ns#"
   xmlns:rdf="http://www.w3.org/1999/02/22-rdf-syntax-ns#"
   xmlns:svg="http://www.w3.org/2000/svg"
   xmlns="http://www.w3.org/2000/svg"
   xmlns:sodipodi="http://sodipodi.sourceforge.net/DTD/sodipodi-0.dtd"
   xmlns:inkscape="http://www.inkscape.org/namespaces/inkscape"
   width="132"
   height="132"
   viewBox="0 0 132 132"
   fill="none"
   version="1.1"
   id="svg22"
   sodipodi:docname="logo.svg"
   inkscape:version="0.92.2 (5c3e80d, 2017-08-06)">
  <metadata
     id="metadata28">
    <rdf:RDF>
      <cc:Work
         rdf:about="">
        <dc:format>image/svg+xml</dc:format>
        <dc:type
           rdf:resource="http://purl.org/dc/dcmitype/StillImage" />
        <dc:title></dc:title>
      </cc:Work>
    </rdf:RDF>
  </metadata>
  <defs
     id="defs26" />
  <sodipodi:namedview
     pagecolor="#ffffff"
     bordercolor="#666666"
     borderopacity="1"
     objecttolerance="10"
     gridtolerance="10"
     guidetolerance="10"
     inkscape:pageopacity="0"
     inkscape:pageshadow="2"
     inkscape:window-width="1920"
     inkscape:window-height="1057"
     id="namedview24"
     showgrid="false"
     inkscape:zoom="3.575757574"
     inkscape:cx="20.48981018"
     inkscape:cy="48.29079898"
     inkscape:window-x="-8"
     inkscape:window-y="-8"
     inkscape:window-maximized="1"
     inkscape:current-layer="svg22" />
  <path
     d="M72.7704 25.1842C76.7243 21.2648 76.7521 14.8822 72.8326 10.9284C68.9132 6.97461 62.5307 6.94677 58.5768 10.8662C54.623 14.7857 54.5952 21.1682 58.5146 25.122C62.4341 29.0758 68.8166 29.1037 72.7704 25.1842Z"
     fill="#00AA67"
     id="path2" />
  <path
     d="M37.9969 37.7078C41.9507 33.7883 41.9785 27.4058 38.0591 23.452C34.1396 19.4982 27.7571 19.4703 23.8033 23.3898C19.8495 27.3092 19.8216 33.6918 23.7411 37.6456C27.6605 41.5994 34.0431 41.6272 37.9969 37.7078Z"
     fill="#F06D24"
     id="path4" />
  <path
     d="M25.0314 72.9249C28.9852 69.0055 29.0131 62.6229 25.0936 58.6691C21.1742 54.7153 14.7916 54.6875 10.8378 58.6069C6.88403 62.5264 6.85618 68.9089 10.7756 72.8627C14.6951 76.8165 21.0776 76.8444 25.0314 72.9249Z"
     fill="#020202"
     id="path6" />
  <path
     fill-rule="evenodd"
     clip-rule="evenodd"
     d="M96.1922 35.4125C92.4675 29.8263 87.5093 25.1706 81.7001 21.8045L77.3054 29.3889L59.7266 59.7264L29.4167 77.3528L21.8392 81.7594C25.2144 87.5633 29.878 92.5142 35.4699 96.2301C41.0619 99.9459 47.4328 102.327 54.0911 103.191C60.7493 104.054 67.5169 103.376 73.8716 101.209C80.2263 99.0423 85.9983 95.4445 90.7421 90.6932C95.4858 85.942 99.0746 80.1644 101.232 73.8063C103.388 67.4482 104.056 60.6796 103.182 54.0227C102.308 47.3658 99.9168 40.9986 96.1922 35.4125ZM29.4167 77.3528L59.7266 59.7264L77.3054 29.3889C81.9528 32.0818 85.9194 35.8064 88.8991 40.2753C91.8788 44.7442 93.792 49.8379 94.491 55.1634C95.1899 60.4889 94.6561 65.9039 92.9306 70.9903C91.2051 76.0768 88.334 80.6989 84.539 84.4999C80.744 88.3008 76.1264 91.1791 71.0426 92.9126C65.9589 94.6461 60.5448 95.1885 55.2182 94.4978C49.8916 93.8072 44.7948 91.902 40.3213 88.9293C35.8477 85.9566 32.1169 81.9959 29.4167 77.3528Z"
     fill="#00AA67"
     id="path8" />
  <path
     fill-rule="evenodd"
     clip-rule="evenodd"
     d="M59.7266 86.0235C74.2499 86.0235 86.0234 74.2499 86.0234 59.7266C86.0234 45.2032 74.2499 33.4297 59.7266 33.4297C45.2032 33.4297 33.4297 45.2032 33.4297 59.7266C33.4297 74.2499 45.2032 86.0235 59.7266 86.0235ZM59.7265 77.2578C69.4088 77.2578 77.2578 69.4088 77.2578 59.7266C77.2578 50.0443 69.4088 42.1953 59.7265 42.1953C50.0443 42.1953 42.1953 50.0443 42.1953 59.7266C42.1953 69.4088 50.0443 77.2578 59.7265 77.2578Z"
     fill="#F06D24"
     id="path10" />
  <path
     d="M 112.3691406 19.63085938 L 19.08984375 112.9101562 A 66 66 0 0 0 65.44140625 132 A 66 66 0 0 0 131.4414062 66 A 66 66 0 0 0 112.3691406 19.63085938 z "
     id="path12"
     style="fill:#f06d24;fill-opacity:0.5587530136" />
  <path
     d="M49.6201 111.026L53.2355 91.85H58.7508L52.7928 118.8H47.2221L42.8504 100.772L38.4787 118.8H32.908L26.95 91.85H32.4653L36.0992 110.989L40.5262 91.85H45.2115L49.6201 111.026Z"
     fill="white"
     id="path14" />
  <path
     d="M79.8051 107.787H69.1802V118.8H63.6464V91.85H81.1332V96.3478H69.1802V103.307H79.8051V107.787Z"
     fill="white"
     id="path16" />
  <path
     d="M97.8526 113.247H88.15L86.3054 118.8H80.4212L90.4189 91.85H95.5469L105.6 118.8H99.7157L97.8526 113.247ZM89.6442 108.749H96.3585L92.9829 98.6615L89.6442 108.749Z"
     fill="white"
     id="path18" />
  <path
     fill-rule="evenodd"
     clip-rule="evenodd"
     d="M33.6915 98.3084L29.3398 102.66L26.95 91.85H32.4653L33.6915 98.3084Z"
     fill="#F06D24"
     id="path20" />
  <path
     d="M 132 0 L 112.640625 19.359375 A 66 66 0 0 1 132 66 L 132 0 z M 132 66 A 66 66 0 0 1 66 132 L 132 132 L 132 66 z M 66 132 A 66 66 0 0 1 19.359375 112.640625 L 0 132 L 66 132 z "
     id="path837" />
</svg>
